<?xml version="1.0" standalone="no"?><!DOCTYPE svg PUBLIC "-//W3C//DTD SVG 1.1//EN" "http://www.w3.org/Graphics/SVG/1.1/DTD/svg11.dtd"><svg t="1782984221799" class="icon" viewBox="0 0 1024 1024" version="1.1" xmlns="http://www.w3.org/2000/svg" p-id="10956" xmlns:xlink="http://www.w3.org/1999/xlink" width="48" height="48"><path d="M0 0m204.8 0l614.4 0q204.8 0 204.8 204.8l0 614.4q0 204.8-204.8 204.8l-614.4 0q-204.8 0-204.8-204.8l0-614.4q0-204.8 204.8-204.8Z" fill="#5574BC" p-id="10957"></path><path d="M308.9408 767.6928s152.8832-420.3008 354.56-519.6288c-219.648 180.5824-382.1056 722.3808-382.1056 722.3808l30.72-25.1904a778.752 778.752 0 0 1 53.9136-113.5104c141.4144-46.3872 262.1952-95.744 310.3232-258.6624 5.4272-35.4304-19.3536-26.0096-26.2656-24.1152 58.624-49.664 173.5168-213.504 134.144-268.032-12.0832-8.0896-17.664-0.9216-17.664-0.9216s89.1904-111.6672 21.4528-133.12-195.7376 75.0592-195.7376 75.0592 2.2016-28.928-27.9552-20.8384a400.64 400.64 0 0 0-179.2 163.84s-8.448-31.6928-23.4496-13.568c-201.0624 240.64-52.3264 416.0512-52.3264 416.0512z" fill="#FFFFFF" p-id="10958"></path></svg>