<?xml version="1.0" standalone="no"?><!DOCTYPE svg PUBLIC "-//W3C//DTD SVG 1.1//EN" "http://www.w3.org/Graphics/SVG/1.1/DTD/svg11.dtd"><svg t="1781663402129" class="icon" viewBox="0 0 1024 1024" version="1.1" xmlns="http://www.w3.org/2000/svg" p-id="7830" xmlns:xlink="http://www.w3.org/1999/xlink" width="200" height="200"><path d="M304 282.88c14.4 0 27.072 7.168 35.008 18.112 5.568 3.2 10.048 8.128 12.8 14.08l0.96 2.56 183.936 533.248c5.952 17.216-4.672 36.416-23.68 42.88-18.048 6.272-37.184-1.216-44.16-16.704l-0.96-2.56-47.68-138.176H182.08l-47.616 138.24c-5.952 17.152-26.176 25.792-45.12 19.2-18.112-6.144-28.544-23.808-24.448-40.32l0.704-2.56 183.872-533.248a32 32 0 0 1 22.4-20.224 42.752 42.752 0 0 1 32.128-14.528z m338.176 151.104c19.136 0 34.752 9.728 36.288 22.08l0.128 1.92v411.84c0 13.248-16.32 24-36.416 24-19.072 0-34.752-9.664-36.224-22.08l-0.192-1.92V458.048c0-13.248 16.32-24 36.48-24.064z m-341.12-42.88l-93.952 272.64h188.032l-94.08-272.64z m527.104-183.936a11.136 11.136 0 0 1 7.104 7.168l28.48 88.32 88.96 32.192c4.48 1.6 7.424 6.016 7.296 10.88a11.2 11.2 0 0 1-7.936 10.496l-87.168 24.96-26.944 86.976a11.008 11.008 0 0 1-10.432 7.808 11.008 11.008 0 0 1-10.496-7.68l-28.48-88.32-86.4-27.968a11.2 11.2 0 0 1-7.552-10.56c-0.064-4.864 2.944-9.152 7.424-10.688l85.376-29.312 26.944-87.04a10.944 10.944 0 0 1 13.824-7.232z m-195.84-78.72a7.744 7.744 0 0 1 4.928 5.12l16.256 52.864 53.312 18.368c3.2 1.088 5.376 4.16 5.312 7.68a7.808 7.808 0 0 1-5.568 7.296l-53.12 16.128-17.344 53.12a7.68 7.68 0 0 1-7.36 5.376 7.68 7.68 0 0 1-7.296-5.504l-16.192-52.864-51.712-15.936a7.808 7.808 0 0 1-5.504-7.36 7.808 7.808 0 0 1 5.184-7.552l52.096-18.624 17.28-53.184a7.68 7.68 0 0 1 9.792-4.992z" fill="#014DA1" p-id="7831"></path></svg>